<svg width="80" height="196" viewBox="0 0 80 196" fill="none" xmlns="http://www.w3.org/2000/svg">
<path d="M80 123.474L80 88.4738L42 116.474L42 151.474L80 123.474Z" fill="white"/>
<path d="M80 167.474L80 132.474L42 160.474L42 195.474L80 167.474Z" fill="white"/>
<path d="M80 79.4739L80 44.4739L42 72.4739L42 107.474L80 79.4739Z" fill="white"/>
<path d="M80 35.4739L80 0.473926L42 28.4739L42 63.4739L80 35.4739Z" fill="white"/>
<path d="M8.5625 192.5L8.5625 183.652C8.5625 181.764 8.88802 180.156 9.53906 178.828C10.1901 177.5 11.1536 176.491 12.4297 175.801C13.7057 175.098 15.2747 174.746 17.1367 174.746C18.6211 174.746 19.9102 174.961 21.0039 175.391C22.0846 175.807 22.9896 176.406 23.7187 177.187C24.4479 177.956 25.0143 178.887 25.418 179.98L26.3164 181.562L26.3164 188.887L21.9609 188.906L21.9609 183.77C21.9609 182.923 21.7721 182.22 21.3945 181.66C21.0169 181.087 20.4961 180.664 19.832 180.391C19.1549 180.104 18.3802 179.961 17.5078 179.961C16.5573 179.961 15.7435 180.091 15.0664 180.352C14.3763 180.599 13.849 180.996 13.4844 181.543C13.1198 182.077 12.9375 182.78 12.9375 183.652L12.9375 187.266L37 187.266L37 192.5L8.5625 192.5ZM37 179.414L24.2656 184.746L24.2656 179.258L36.7266 173.828L37 173.828L37 179.414ZM32.6445 154.492L37 154.492L37 166.836L32.6445 166.836L32.6445 154.492ZM8.5625 165.332L37 165.332L37 170.566L8.5625 170.566L8.5625 165.332ZM20.2422 156.152L24.4805 156.152L24.4805 166.836L20.2422 166.836L20.2422 156.152ZM8.5625 154.57L12.9375 154.57L12.9375 166.836L8.5625 166.836L8.5625 154.57ZM27.625 137.168L27.625 131.953C29.7214 132.044 31.4987 132.474 32.957 133.242C34.4023 133.997 35.5026 135.085 36.2578 136.504C37.013 137.91 37.3906 139.622 37.3906 141.641C37.3906 143.177 37.1237 144.551 36.5898 145.762C36.043 146.973 35.2552 148.001 34.2266 148.848C33.1979 149.681 31.9349 150.319 30.4375 150.762C28.9271 151.191 27.2018 151.406 25.2617 151.406L20.3203 151.406C18.3802 151.406 16.6549 151.178 15.1445 150.723C13.6341 150.267 12.3581 149.616 11.3164 148.77C10.2747 147.91 9.48698 146.868 8.95312 145.645C8.41927 144.421 8.15234 143.04 8.15234 141.504C8.15234 139.473 8.53646 137.773 9.30468 136.406C10.0729 135.039 11.1992 133.984 12.6836 133.242C14.1549 132.5 15.9518 132.064 18.0742 131.934L18.0742 137.148C16.694 137.201 15.6003 137.37 14.793 137.656C13.9727 137.943 13.3867 138.392 13.0352 139.004C12.6836 139.616 12.5078 140.449 12.5078 141.504C12.5078 142.324 12.6575 143.034 12.957 143.633C13.2565 144.232 13.7253 144.72 14.3633 145.098C14.9883 145.475 15.7891 145.755 16.7656 145.937C17.7422 146.12 18.9141 146.211 20.2812 146.211L25.2617 146.211C26.5768 146.211 27.7227 146.133 28.6992 145.977C29.6758 145.82 30.4896 145.573 31.1406 145.234C31.7786 144.883 32.2604 144.414 32.5859 143.828C32.8984 143.242 33.0547 142.513 33.0547 141.641C33.0547 140.586 32.8984 139.746 32.5859 139.121C32.2604 138.496 31.707 138.034 30.9258 137.734C30.1315 137.422 29.0312 137.233 27.625 137.168ZM20.5156 108.477L25.3008 108.477C27.306 108.477 29.0638 108.711 30.5742 109.18C32.0846 109.648 33.3477 110.326 34.3633 111.211C35.3659 112.096 36.1211 113.158 36.6289 114.395C37.1367 115.632 37.3906 116.999 37.3906 118.496C37.3906 120.007 37.1367 121.38 36.6289 122.617C36.1211 123.854 35.3659 124.922 34.3633 125.82C33.3477 126.706 32.0846 127.396 30.5742 127.891C29.0638 128.372 27.306 128.613 25.3008 128.613L20.5156 128.613C18.4714 128.613 16.681 128.372 15.1445 127.891C13.6081 127.409 12.3255 126.725 11.2969 125.84C10.2682 124.941 9.49349 123.874 8.97265 122.637C8.4388 121.4 8.17187 120.033 8.17187 118.535C8.17187 117.025 8.4388 115.658 8.97265 114.434C9.49349 113.197 10.2682 112.135 11.2969 111.25C12.3255 110.352 13.6081 109.668 15.1445 109.199C16.681 108.717 18.4714 108.477 20.5156 108.477ZM25.3008 113.672L20.4766 113.672C19.0833 113.672 17.8854 113.776 16.8828 113.984C15.8802 114.193 15.0664 114.505 14.4414 114.922C13.8034 115.339 13.3346 115.853 13.0352 116.465C12.7357 117.064 12.5859 117.754 12.5859 118.535C12.5859 119.329 12.7357 120.033 13.0352 120.645C13.3346 121.243 13.8034 121.751 14.4414 122.168C15.0664 122.572 15.8802 122.878 16.8828 123.086C17.8854 123.294 19.0833 123.398 20.4766 123.398L25.3008 123.398C26.668 123.398 27.8398 123.294 28.8164 123.086C29.793 122.878 30.5872 122.565 31.1992 122.148C31.8112 121.719 32.2669 121.204 32.5664 120.605C32.8529 119.993 32.9961 119.29 32.9961 118.496C32.9961 117.715 32.8529 117.025 32.5664 116.426C32.2669 115.814 31.8112 115.306 31.1992 114.902C30.5872 114.486 29.793 114.18 28.8164 113.984C27.8398 113.776 26.668 113.672 25.3008 113.672ZM31.3164 95.7812L8.5625 90.0586L8.5625 84.4141L37 92.7734L37 96.6211L31.3164 95.7812ZM8.5625 100.742L31.3164 95.0391L37 94.1602L37 98.0273L8.5625 106.348L8.5625 100.742ZM32.6445 65.3516L37 65.3516L37 77.6953L32.6445 77.6953L32.6445 65.3516ZM8.56249 76.1914L37 76.1914L37 81.4258L8.5625 81.4258L8.56249 76.1914ZM20.2422 67.0117L24.4805 67.0117L24.4805 77.6953L20.2422 77.6953L20.2422 67.0117ZM8.56249 65.4297L12.9375 65.4297L12.9375 77.6953L8.56249 77.6953L8.56249 65.4297ZM8.56249 61.7187L8.56249 52.8711C8.56249 50.9831 8.88801 49.375 9.53906 48.0469C10.1901 46.7187 11.1536 45.7096 12.4297 45.0195C13.7057 44.3164 15.2747 43.9648 17.1367 43.9648C18.6211 43.9648 19.9101 44.1797 21.0039 44.6094C22.0846 45.026 22.9896 45.625 23.7187 46.4062C24.4479 47.1745 25.0143 48.1055 25.418 49.1992L26.3164 50.7812L26.3164 58.1055L21.9609 58.125L21.9609 52.9883C21.9609 52.1419 21.7721 51.4388 21.3945 50.8789C21.0169 50.306 20.4961 49.8828 19.832 49.6094C19.1549 49.3229 18.3802 49.1797 17.5078 49.1797C16.5573 49.1797 15.7435 49.3099 15.0664 49.5703C14.3763 49.8177 13.849 50.2148 13.4844 50.7617C13.1198 51.2956 12.9375 51.9987 12.9375 52.8711L12.9375 56.4844L37 56.4844L37 61.7187L8.56249 61.7187ZM37 48.6328L24.2656 53.9648L24.2656 48.4766L36.7266 43.0469L37 43.0469L37 48.6328ZM8.56249 37.1094L21.707 32.4414L8.56249 27.793L8.56249 22.0508L26.6094 29.8047L37 29.8047L37 35.0781L26.6094 35.0781L8.56249 42.832L8.56249 37.1094Z" fill="white"/>
</svg>
